<svg width="14" height="17" viewBox="0 0 14 17" fill="none" xmlns="http://www.w3.org/2000/svg">
<path fill-rule="evenodd" clip-rule="evenodd" d="M2.05038 2.05023C3.36312 0.73749 5.14358 0 7.00007 0C8.85657 0 10.637 0.73749 11.9498 2.05023C13.2625 3.36297 14 5.14343 14 6.99993C14 8.85642 13.2625 10.6369 11.9498 11.9496L7.00007 16.8993L2.05038 11.9496C1.40033 11.2996 0.884685 10.528 0.532879 9.67871C0.181073 8.82944 0 7.91918 0 6.99993C0 6.08067 0.181073 5.17042 0.532879 4.32114C0.884685 3.47187 1.40033 2.70021 2.05038 2.05023ZM7.00007 8.9998C7.53047 8.9998 8.03915 8.7891 8.4142 8.41405C8.78925 8.039 8.99995 7.53033 8.99995 6.99993C8.99995 6.46953 8.78925 5.96085 8.4142 5.5858C8.03915 5.21075 7.53047 5.00005 7.00007 5.00005C6.46967 5.00005 5.961 5.21075 5.58595 5.5858C5.2109 5.96085 5.0002 6.46953 5.0002 6.99993C5.0002 7.53033 5.2109 8.039 5.58595 8.41405C5.961 8.7891 6.46967 8.9998 7.00007 8.9998Z" fill="#0037A1"/>
</svg>
