<svg width="21" height="14" viewBox="0 0 21 14" fill="none" xmlns="http://www.w3.org/2000/svg">
<path d="M16.948 6.112C16.511 2.67 13.563 0 10.004 0C7.24803 0 4.85403 1.611 3.76103 4.15C1.61303 4.792 0.00402832 6.82 0.00402832 9C0.00402832 11.757 2.24703 14 5.00403 14H6.00403V12H5.00403C3.35003 12 2.00403 10.654 2.00403 9C2.00403 7.596 3.20303 6.243 4.67703 5.984L5.25803 5.882L5.45003 5.324C6.15303 3.273 7.89803 2 10.004 2C12.761 2 15.004 4.243 15.004 7V8H16.004C17.107 8 18.004 8.897 18.004 10C18.004 11.103 17.107 12 16.004 12H14.004V14H16.004C18.21 14 20.004 12.206 20.004 10C20.0028 9.10352 19.7011 8.23332 19.1471 7.5285C18.5932 6.82368 17.8189 6.32494 16.948 6.112Z" fill="#0037A1"/>
<path d="M11.004 9V5H9.00403V9H6.00403L10.004 14L14.004 9H11.004Z" fill="#0037A1"/>
</svg>
