<svg width="13" height="16" viewBox="0 0 13 16" fill="none" xmlns="http://www.w3.org/2000/svg">
<path d="M11.9933 12.8534L9.52003 9.55635C9.4031 9.40054 9.22632 9.28905 9.02699 9.24541C8.82767 9.20177 8.62141 9.22941 8.45176 9.32247L6.20886 10.5526C5.78819 10.3683 4.9662 9.90227 4.2588 8.8635C3.55208 7.822 3.47376 6.95968 3.48923 6.54824L5.77109 5.37644C5.94397 5.28803 6.0687 5.14016 6.11888 4.96413C6.16906 4.7881 6.14076 4.59773 6.03996 4.43329L3.91133 0.954581C3.81058 0.789718 3.64494 0.663779 3.44959 0.603509C3.25425 0.543239 3.04458 0.553387 2.86513 0.631797L0.894148 1.49378C0.732831 1.57973 0.614931 1.71813 0.562811 1.88274C0.508943 2.05087 -0.714226 6.04673 2.00863 10.0577C4.38448 13.5549 8.16218 14.7051 9.21629 14.9667C9.37036 15.0049 9.46596 15.0243 9.49147 15.0291C9.68029 15.0661 9.87393 15.0389 10.0351 14.9528L11.8223 13.8201C11.9854 13.7176 12.0945 13.5591 12.1265 13.3785C12.1585 13.1979 12.1107 13.0094 11.9933 12.8534Z" fill="#0037A1"/>
</svg>
