<svg width="1114" height="120" viewBox="0 0 1114 120" fill="none" xmlns="http://www.w3.org/2000/svg">
<path d="M13 8.7067C93.4269 18.1003 97.5809 118 185.924 118C278.628 118 278.628 8 371.33 8C464.033 8 464.033 118 556.735 118C649.438 118 649.439 8 742.143 8C834.852 8 834.852 118 927.561 118C1016.09 118 1020.08 17.6886 1101 8.65017" stroke="#E7E7E7" stroke-width="4" stroke-miterlimit="10" stroke-linecap="round" stroke-dasharray="1 13"/>
<path d="M7.84734 3.34913C5.09033 3.22213 2.74933 5.35713 2.62233 8.11413C2.49533 10.8711 4.63033 13.2121 7.38734 13.3391C10.1433 13.4661 12.4853 11.3311 12.6113 8.57413C12.7383 5.81713 10.6033 3.47613 7.84734 3.34913Z" stroke="#E7E7E7" stroke-width="5" stroke-miterlimit="10" stroke-linecap="round"/>
<path d="M1097.81 1.16699L1113.13 7.99898L1098.47 16.152L1097.81 1.16699Z" fill="#E7E7E7"/>
</svg>
