<svg width="194" height="40" viewBox="0 0 194 40" fill="none" xmlns="http://www.w3.org/2000/svg">
<path d="M66.9978 0C68.9485 0.283077 70.0325 1.36154 70.2311 3.23539L61.8121 27.3031C61.2162 28.0462 60.5649 28.6123 59.8598 29.0015C59.1377 29.4077 58.3432 29.7077 57.4579 29.92C56.5725 30.1323 55.5964 30.2738 54.5125 30.3277C53.4285 30.3985 52.2353 30.4154 50.8988 30.4154L57.3316 40H39.4621L32.9754 30.3092H25.2954L28.8367 20.1415H49.1821L52.7234 10.0969H25.7651L15.2675 40H0L14.0927 0H66.9978Z" fill="#0037A1"/>
<path d="M113.722 25.0569H81.8141L80.0974 29.9031H122.141L118.619 40H65.8953C63.5288 39.4692 62.4264 38.2492 62.5896 36.3569L74.0803 3.64308C74.7855 2.56462 75.6877 1.73231 76.7901 1.14923C77.8925 0.583079 79.1397 0.193846 80.5131 0H132.713L129.116 10.0969H87.0537L85.4092 14.8892H117.318L113.722 25.0569Z" fill="#CE2A1D"/>
<path d="M194 0L190.405 10.0969H148.341L141.384 29.9031H183.43L179.907 40H127.184C124.816 39.4692 123.713 38.2492 123.877 36.3569L135.369 3.64308C136.073 2.56462 136.976 1.73231 138.079 1.14923C139.181 0.583079 140.427 0.193846 141.8 0H194Z" fill="#2C2D36"/>
</svg>
